<svg xmlns="http://www.w3.org/2000/svg" viewBox="0 0 224.58 111.63"><defs><style>.cls-1{fill:#00b389;}.cls-2,.cls-3{fill:#1e8782;}.cls-3{font-size:12.65px;font-family:AvenirNext-DemiBold, Avenir Next;font-weight:700;letter-spacing:0.17em;}.cls-4{letter-spacing:0.2em;}.cls-5{letter-spacing:0.19em;}.cls-6{letter-spacing:0.19em;}.cls-7{letter-spacing:0.17em;}.cls-8{letter-spacing:0.2em;}.cls-9{letter-spacing:0.18em;}.cls-10{letter-spacing:0.17em;}</style></defs><title>split-logotype+slogan</title><g id="Layer_2" data-name="Layer 2"><g id="Layer_1-2" data-name="Layer 1"><path class="cls-1" d="M112.33,53.49a33.28,33.28,0,0,1-1.69,10.6,27.15,27.15,0,0,1-4.93,9,24.16,24.16,0,0,1-7.89,6.19,23.3,23.3,0,0,1-10.59,2.34,22.28,22.28,0,0,1-9.22-2,16.56,16.56,0,0,1-6.78-5.35H71v31.25H53.65V27.33H70.17v6.46h.32a21.48,21.48,0,0,1,6.73-5.56,20.48,20.48,0,0,1,10.11-2.38,23.86,23.86,0,0,1,10.39,2.22,23.55,23.55,0,0,1,7.89,6,27.65,27.65,0,0,1,5,8.84A32.05,32.05,0,0,1,112.33,53.49Zm-16.84,0a15.9,15.9,0,0,0-.79-5,12.89,12.89,0,0,0-2.33-4.29,11.76,11.76,0,0,0-3.87-3A11.89,11.89,0,0,0,83.1,40a11.64,11.64,0,0,0-5.3,1.17,12.53,12.53,0,0,0-4,3.07,14,14,0,0,0-2.54,4.34,14.23,14.23,0,0,0,0,10,13.86,13.86,0,0,0,2.54,4.34,12.53,12.53,0,0,0,4,3.07,11.64,11.64,0,0,0,5.3,1.17A11.89,11.89,0,0,0,88.5,66a11.51,11.51,0,0,0,3.87-3.07,13.49,13.49,0,0,0,2.33-4.39A16.47,16.47,0,0,0,95.49,53.49Z"/><path class="cls-1" d="M121.78,80.08V0h17.69V80.08Z"/><path class="cls-1" d="M172,10.49a9,9,0,0,1-.79,3.76,9.49,9.49,0,0,1-5.3,5A10.4,10.4,0,0,1,162,20a9.68,9.68,0,0,1-7.09-2.81,9.07,9.07,0,0,1-2.86-6.72,9.21,9.21,0,0,1,.74-3.66,8.66,8.66,0,0,1,2.12-3,11.38,11.38,0,0,1,3.18-2.06A9.53,9.53,0,0,1,162,1a10.22,10.22,0,0,1,3.87.75,9.49,9.49,0,0,1,5.3,5A9,9,0,0,1,172,10.49ZM153.35,80.08V27.33h17.37V80.08Z"/><path class="cls-1" d="M206.69,40.25V60.46A9.1,9.1,0,0,0,208.12,66q1.44,1.86,5.14,1.86a18.55,18.55,0,0,0,2.7-.21,9.05,9.05,0,0,0,2.39-.64l.21,12.72A29.61,29.61,0,0,1,214,80.88a32,32,0,0,1-5.51.47A26,26,0,0,1,199.6,80a13.78,13.78,0,0,1-5.78-3.83,14.85,14.85,0,0,1-3.12-5.94,28.72,28.72,0,0,1-1-7.7V40.25h-8.47V27.33h8.37V13.45h17.05V27.33h12.4V40.25Z"/><path class="cls-2" d="M10.49,29.77A17,17,0,0,0,5.3,35.22a15.46,15.46,0,0,0-2,8.11,13.69,13.69,0,0,0,1.37,6.35,14.17,14.17,0,0,0,3.55,4.45A17.35,17.35,0,0,0,13.14,57a41,41,0,0,0,5.51,1.7c1.39.32,2.59.64,3.7,1V45.84l-.79-.29a3.27,3.27,0,0,1-2.28-3.18,3.34,3.34,0,0,1,2.07-3.28c.32-.15.66-.28,1-.4V25.79a31.44,31.44,0,0,0-4.82.85A23,23,0,0,0,10.49,29.77Z"/><path class="cls-1" d="M36.87,42.9l9.53-9.85a25.1,25.1,0,0,0-9.59-5.56,36.91,36.91,0,0,0-10.44-1.81V38.16a13.8,13.8,0,0,1,5.52,1.35A19.71,19.71,0,0,1,36.87,42.9Z"/><path class="cls-1" d="M40.36,52.54a21.21,21.21,0,0,0-5.45-3.07,39.18,39.18,0,0,0-6-1.8c-.92-.21-1.77-.42-2.55-.62V61l.22.09a3.8,3.8,0,0,1,2.54,3.6,3.61,3.61,0,0,1-2.06,3.55c-.24.12-.47.21-.7.3V81.62a36.21,36.21,0,0,0,4.88-.8,22.34,22.34,0,0,0,7.26-3.07,15.81,15.81,0,0,0,7.25-14,13.68,13.68,0,0,0-1.48-6.57A14.7,14.7,0,0,0,40.36,52.54Z"/><path class="cls-2" d="M10,63.35.21,73.62a26.59,26.59,0,0,0,10.33,6.09,39.53,39.53,0,0,0,11.81,2V69.25a15.92,15.92,0,0,1-6.67-1.67A19.31,19.31,0,0,1,10,63.35Z"/><text class="cls-3" transform="translate(0.21 105.82)">Y<tspan class="cls-4" x="10.04" y="0" xml:space="preserve">OUR      C</tspan><tspan class="cls-5" x="90.85" y="0">R</tspan><tspan class="cls-4" x="101.25" y="0">Y</tspan><tspan class="cls-6" x="111.65" y="0">P</tspan><tspan class="cls-7" x="121.82" y="0">T</tspan><tspan class="cls-8" x="131.15" y="0">O </tspan><tspan class="cls-9" x="150.11" y="0">S</tspan><tspan class="cls-10" x="159.7" y="0">T</tspan><tspan class="cls-8" x="169.04" y="0">ORIES</tspan><tspan class="cls-7" x="218.93" y="0">.</tspan></text></g></g></svg>